<svg width="107" height="19" fill="none" xmlns="http://www.w3.org/2000/svg"><g clip-path="url('#clip0_66_3587')"><path d="M8.416 19c-2.232 0-4.373-.946-5.951-2.63C.887 14.684 0 12.4 0 10.018h16.831c0 2.382-.886 4.666-2.464 6.35C12.788 18.054 10.647 19 8.416 19Z" fill="#5E00F5"/><path d="M15.91 8.98c-.028-2.102-.83-4.107-2.233-5.583-1.402-1.475-3.293-2.302-5.262-2.302-1.97 0-3.86.827-5.262 2.302C1.75 4.873.948 6.878.92 8.98H0c0-2.381.887-4.666 2.465-6.35C4.043.945 6.184-.001 8.415-.001c2.233 0 4.373.946 5.952 2.63 1.578 1.684 2.464 3.969 2.464 6.35h-.92Z" fill="#FF7966"/><path d="M8.416 2.248c1.672.002 3.276.711 4.459 1.973 1.183 1.262 1.848 2.974 1.85 4.758h-.921c-.024-1.508-.602-2.946-1.61-4.003-1.008-1.058-2.365-1.65-3.779-1.65-1.414 0-2.77.592-3.779 1.65C3.628 6.033 3.05 7.47 3.026 8.979h-.92c.002-1.784.668-3.496 1.85-4.758C5.14 2.96 6.744 2.25 8.417 2.248Z" fill="#FFD2CC"/></g><path d="M28.061 15.422V5.608H24.76v-2.03H33.5v2.03h-3.302v9.814H28.06ZM34.967 15.422V3.577h4.921c.712 0 1.333.13 1.862.39.529.26.939.626 1.23 1.1.291.473.437 1.032.437 1.675v.203c0 .71-.162 1.286-.486 1.726-.323.44-.723.761-1.197.964v.305c.431.022.766.18 1.003.474.238.282.356.66.356 1.133v3.875h-2.137V11.87c0-.27-.07-.49-.21-.66-.13-.17-.35-.254-.664-.254h-2.978v4.467h-2.137Zm2.137-6.497h2.557c.508 0 .901-.141 1.182-.423.291-.294.437-.677.437-1.151v-.17c0-.473-.14-.851-.42-1.133-.281-.293-.68-.44-1.199-.44h-2.557v3.317ZM44.43 15.422l2.978-11.845h3.723l2.979 11.845h-2.202l-.615-2.606h-4.047l-.615 2.606h-2.202Zm3.318-4.67h3.043l-1.376-5.77h-.291l-1.376 5.77ZM59.689 15.66c-1.403 0-2.515-.407-3.335-1.22-.82-.823-1.23-1.996-1.23-3.519V8.08c0-1.523.41-2.691 1.23-3.503.82-.824 1.932-1.235 3.335-1.235 1.392 0 2.466.4 3.221 1.201.767.79 1.15 1.878 1.15 3.266v.101h-2.105V7.74c0-.7-.189-1.275-.566-1.726-.367-.451-.934-.677-1.7-.677-.756 0-1.35.243-1.78.728-.433.485-.648 1.145-.648 1.98v2.91c0 .824.215 1.484.647 1.98.432.485 1.025.727 1.78.727.767 0 1.334-.225 1.7-.676.378-.463.567-1.038.567-1.726v-.305h2.105v.237c0 1.388-.384 2.482-1.15 3.283-.755.79-1.829 1.184-3.221 1.184ZM65.812 15.422V3.577h2.137v4.705h.291l3.675-4.705h2.736l-4.727 5.838 4.889 6.007h-2.817l-3.756-4.805h-.291v4.805h-2.137ZM75.957 15.422V3.577h2.137v11.845h-2.137ZM79.913 15.422V12.58l5.6-6.735v-.27h-5.439V3.576h7.674V6.42l-5.602 6.735v.27h5.634v1.997h-7.867ZM89.575 15.422V3.577h7.284v2.031h-5.147v2.826h4.694v2.03h-4.694v2.928h5.245v2.03h-7.382ZM98.55 15.422V3.577h4.921c.712 0 1.333.13 1.862.39.528.26.938.626 1.23 1.1.291.473.437 1.032.437 1.675v.203c0 .71-.162 1.286-.486 1.726a2.87 2.87 0 0 1-1.198.964v.305c.432.022.767.18 1.004.474.237.282.356.66.356 1.133v3.875h-2.137V11.87c0-.27-.07-.49-.21-.66-.13-.17-.351-.254-.664-.254h-2.978v4.467H98.55Zm2.137-6.497h2.557c.508 0 .901-.141 1.182-.423.291-.294.437-.677.437-1.151v-.17c0-.473-.14-.851-.421-1.133-.28-.293-.68-.44-1.198-.44h-2.557v3.317Z" fill="#fff"/><defs><clipPath id="clip0_66_3587"><path fill="#fff" transform="matrix(1 0 0 -1 0 19)" d="M0 0h16.831v19H0z"/></clipPath></defs></svg>