<svg width="375" height="99" fill="none" xmlns="http://www.w3.org/2000/svg"><g filter="url('#filter0_b_66_2870')"><mask id="path-1-inside-1_66_2870" fill="#fff"><path fill-rule="evenodd" clip-rule="evenodd" d="M145.713 28c5.452 0 9.287 5.548 9.287 11v1c0 17.673 14.327 32 32 32 17.673 0 32-14.327 32-32v-1c0-5.452 3.835-11 9.287-11H324.5c10.76 0 16.14 0 20.06 2.482a16.003 16.003 0 0 1 4.958 4.958C352 39.36 352 44.74 352 55.5c0 10.76 0 16.14-2.482 20.06a16.003 16.003 0 0 1-4.958 4.958C340.64 83 335.26 83 324.5 83h-274c-10.76 0-16.14 0-20.06-2.482a16.004 16.004 0 0 1-4.958-4.958C23 71.64 23 66.26 23 55.5c0-10.76 0-16.14 2.482-20.06a16.004 16.004 0 0 1 4.958-4.958C34.36 28 39.74 28 50.5 28h95.213Z"/></mask><path fill-rule="evenodd" clip-rule="evenodd" d="M145.713 28c5.452 0 9.287 5.548 9.287 11v1c0 17.673 14.327 32 32 32 17.673 0 32-14.327 32-32v-1c0-5.452 3.835-11 9.287-11H324.5c10.76 0 16.14 0 20.06 2.482a16.003 16.003 0 0 1 4.958 4.958C352 39.36 352 44.74 352 55.5c0 10.76 0 16.14-2.482 20.06a16.003 16.003 0 0 1-4.958 4.958C340.64 83 335.26 83 324.5 83h-274c-10.76 0-16.14 0-20.06-2.482a16.004 16.004 0 0 1-4.958-4.958C23 71.64 23 66.26 23 55.5c0-10.76 0-16.14 2.482-20.06a16.004 16.004 0 0 1 4.958-4.958C34.36 28 39.74 28 50.5 28h95.213Z" fill="#4E4E61" fill-opacity=".75"/><path d="m30.44 80.518.535-.845-.535.845Zm-4.958-4.958-.845.535.845-.535Zm324.036 0 .845.535-.845-.535Zm-4.958 4.958.535.844-.535-.844Zm0-50.036.535-.845-.535.845Zm4.958 4.958-.845.535.845-.535ZM156 40v-1h-2v1h2Zm31 31c-17.121 0-31-13.88-31-31h-2c0 18.225 14.775 33 33 33v-2Zm31-31c0 17.12-13.879 31-31 31v2c18.225 0 33-14.775 33-33h-2Zm0-1v1h2v-1h-2Zm10.287-10H324.5v-2h-96.213v2ZM324.5 82h-274v2h274v-2Zm-274-53h95.213v-2H50.5v2ZM24 55.5c0-5.4.001-9.378.306-12.498.302-3.104.898-5.254 2.021-7.027l-1.69-1.07c-1.359 2.147-2.004 4.648-2.322 7.903C21.999 46.048 22 50.14 22 55.5h2ZM50.5 27c-5.36 0-9.452-.001-12.692.315-3.255.318-5.756.963-7.903 2.322l1.07 1.69c1.773-1.123 3.923-1.719 7.027-2.021C41.122 29 45.1 29 50.5 29v-2Zm-24.173 8.975a15 15 0 0 1 4.648-4.648l-1.07-1.69a17 17 0 0 0-5.268 5.268l1.69 1.07ZM50.5 82c-5.4 0-9.378-.001-12.498-.306-3.104-.303-5.254-.898-7.027-2.021l-1.07 1.69c2.147 1.359 4.648 2.004 7.903 2.322 3.24.316 7.332.315 12.692.315v-2ZM22 55.5c0 5.36-.001 9.452.315 12.692.318 3.255.963 5.756 2.322 7.903l1.69-1.07c-1.123-1.773-1.719-3.923-2.021-7.027C24 64.878 24 60.9 24 55.5h-2Zm8.975 24.173a15 15 0 0 1-4.648-4.648l-1.69 1.07a17 17 0 0 0 5.268 5.267l1.07-1.69ZM351 55.5c0 5.4-.001 9.378-.306 12.498-.302 3.104-.898 5.254-2.021 7.027l1.69 1.07c1.359-2.147 2.004-4.648 2.322-7.903.316-3.24.315-7.332.315-12.692h-2ZM324.5 84c5.36 0 9.452.001 12.692-.315 3.255-.318 5.756-.963 7.903-2.323l-1.07-1.69c-1.773 1.124-3.923 1.72-7.027 2.022C333.878 82 329.9 82 324.5 82v2Zm24.173-8.975a15.004 15.004 0 0 1-4.648 4.648l1.07 1.69a17 17 0 0 0 5.268-5.268l-1.69-1.07ZM324.5 29c5.4 0 9.378.001 12.498.306 3.104.302 5.254.898 7.027 2.021l1.07-1.69c-2.147-1.359-4.648-2.004-7.903-2.322-3.24-.316-7.332-.315-12.692-.315v2ZM353 55.5c0-5.36.001-9.452-.315-12.692-.318-3.255-.963-5.756-2.322-7.903l-1.69 1.07c1.123 1.773 1.719 3.923 2.021 7.027.305 3.12.306 7.098.306 12.498h2Zm-8.975-24.173a15.004 15.004 0 0 1 4.648 4.648l1.69-1.07a17 17 0 0 0-5.268-5.268l-1.07 1.69ZM220 39c0-2.504.885-5.034 2.382-6.923 1.492-1.882 3.545-3.077 5.905-3.077v-2c-3.092 0-5.683 1.578-7.472 3.834C219.033 33.082 218 36.052 218 39h2Zm-64 0c0-2.948-1.033-5.918-2.815-8.166-1.789-2.256-4.38-3.834-7.472-3.834v2c2.36 0 4.413 1.195 5.905 3.077C153.115 33.966 154 36.496 154 39h2Z" fill="url('#paint0_linear_66_2870')" fill-opacity=".15" mask="url('#path-1-inside-1_66_2870')"/></g><g filter="url('#filter1_d_66_2870')"><rect x="163" y="17" width="48" height="48" rx="24" fill="#FF7966"/><rect x="163" y="17" width="48" height="48" rx="24" fill="url('#paint1_radial_66_2870')" fill-opacity=".5"/><rect x="163.5" y="17.5" width="47" height="47" rx="23.5" stroke="url('#paint2_linear_66_2870')" stroke-opacity=".5"/></g><g clip-path="url('#clip0_66_2870')"><path d="M194.333 40.333h-6.666v-6.666A.667.667 0 0 0 187 33a.665.665 0 0 0-.667.667v6.666h-6.666A.668.668 0 0 0 179 41a.666.666 0 0 0 .667.667h6.666v6.666a.667.667 0 0 0 1.334 0v-6.666h6.666a.668.668 0 1 0 0-1.334Z" fill="#fff"/></g><path d="m64.34 53.802-5.688-5.69a3.756 3.756 0 0 0-5.304 0l-5.689 5.69a2.231 2.231 0 0 0-.659 1.59v7.363a2.25 2.25 0 0 0 2.25 2.25h13.5a2.25 2.25 0 0 0 2.25-2.25v-7.363a2.232 2.232 0 0 0-.66-1.59Zm-6.09 9.703h-4.5v-2.95a2.25 2.25 0 0 1 4.5 0v2.95Zm5.25-.75a.75.75 0 0 1-.75.75h-3v-2.95a3.75 3.75 0 0 0-7.5 0v2.95h-3a.75.75 0 0 1-.75-.75v-7.363c0-.198.08-.389.22-.53l5.688-5.687a2.256 2.256 0 0 1 3.184 0l5.688 5.69c.14.14.219.33.22.527v7.363Z" fill="#A2A2B5"/><g clip-path="url('#clip1_66_2870')" fill="#fff"><path d="M118.25 47H116a2.998 2.998 0 0 0-3 3v2.25a2.999 2.999 0 0 0 3 3h2.25a2.998 2.998 0 0 0 3-3V50a2.999 2.999 0 0 0-3-3Zm1.5 5.25a1.501 1.501 0 0 1-1.5 1.5H116a1.502 1.502 0 0 1-1.5-1.5V50a1.501 1.501 0 0 1 1.5-1.5h2.25a1.502 1.502 0 0 1 1.5 1.5v2.25ZM128 47h-2.25a2.998 2.998 0 0 0-3 3v2.25a2.999 2.999 0 0 0 3 3H128a2.998 2.998 0 0 0 3-3V50a2.999 2.999 0 0 0-3-3Zm1.5 5.25a1.501 1.501 0 0 1-1.5 1.5h-2.25a1.502 1.502 0 0 1-1.5-1.5V50a1.501 1.501 0 0 1 1.5-1.5H128a1.502 1.502 0 0 1 1.5 1.5v2.25ZM118.25 56.75H116a2.998 2.998 0 0 0-3 3V62a2.999 2.999 0 0 0 3 3h2.25a2.998 2.998 0 0 0 3-3v-2.25a2.999 2.999 0 0 0-3-3Zm1.5 5.25a1.501 1.501 0 0 1-1.5 1.5H116a1.502 1.502 0 0 1-1.5-1.5v-2.25a1.501 1.501 0 0 1 1.5-1.5h2.25a1.502 1.502 0 0 1 1.5 1.5V62ZM128 56.75h-2.25a2.998 2.998 0 0 0-3 3V62a2.999 2.999 0 0 0 3 3H128a2.998 2.998 0 0 0 3-3v-2.25a2.999 2.999 0 0 0-3-3Zm1.5 5.25a1.501 1.501 0 0 1-1.5 1.5h-2.25a1.502 1.502 0 0 1-1.5-1.5v-2.25a1.501 1.501 0 0 1 1.5-1.5H128a1.502 1.502 0 0 1 1.5 1.5V62Z"/></g><g clip-path="url('#clip2_66_2870')" fill="#A2A2B5"><path d="M258.25 48.5h-.75v-.75a.749.749 0 0 0-1.28-.53.749.749 0 0 0-.22.53v.75h-6v-.75a.749.749 0 0 0-1.28-.53.749.749 0 0 0-.22.53v.75h-.75a3.754 3.754 0 0 0-3.75 3.75v9a3.754 3.754 0 0 0 3.75 3.75h10.5a3.754 3.754 0 0 0 3.75-3.75v-9a3.754 3.754 0 0 0-3.75-3.75Zm-12.75 3.75a2.25 2.25 0 0 1 2.25-2.25h10.5a2.25 2.25 0 0 1 2.25 2.25V53h-15v-.75Zm12.75 11.25h-10.5a2.25 2.25 0 0 1-2.25-2.25V54.5h15v6.75a2.25 2.25 0 0 1-2.25 2.25Z"/><path d="M253 59.375a1.125 1.125 0 1 0 0-2.25 1.125 1.125 0 0 0 0 2.25ZM249.25 59.375a1.125 1.125 0 1 0 0-2.25 1.125 1.125 0 0 0 0 2.25ZM256.75 59.375a1.125 1.125 0 1 0 0-2.25 1.125 1.125 0 0 0 0 2.25Z"/></g><g clip-path="url('#clip3_66_2870')" fill="#A2A2B5"><path d="M313.125 57.95a1.125 1.125 0 1 0 0-2.25 1.125 1.125 0 0 0 0 2.25Z"/><path d="M323.25 47.45h-10.5A3.754 3.754 0 0 0 309 51.2v6a3.754 3.754 0 0 0 3.75 3.75h10.5A3.754 3.754 0 0 0 327 57.2v-6a3.754 3.754 0 0 0-3.75-3.75Zm-10.5 1.5h10.5a2.25 2.25 0 0 1 2.25 2.25h-15a2.25 2.25 0 0 1 2.25-2.25Zm10.5 10.5h-10.5a2.25 2.25 0 0 1-2.25-2.25v-4.5h15v4.5a2.25 2.25 0 0 1-2.25 2.25Z"/><path fill-rule="evenodd" clip-rule="evenodd" d="m327 61.25-1.5.6c0 .597-.237.569-.659.991a2.25 2.25 0 0 1-1.591.659h-10.5a2.25 2.25 0 0 1-1.591-.659c-.422-.422-.659-.394-.659-.991l-1.5-.6a3.754 3.754 0 0 0 3.75 3.75h10.5a3.754 3.754 0 0 0 3.75-3.75Z"/></g><defs><clipPath id="clip0_66_2870"><path fill="#fff" transform="translate(179 33)" d="M0 0h16v16H0z"/></clipPath><clipPath id="clip1_66_2870"><path fill="#fff" transform="translate(113 47)" d="M0 0h18v18H0z"/></clipPath><clipPath id="clip2_66_2870"><path fill="#fff" transform="translate(244 47)" d="M0 0h18v18H0z"/></clipPath><clipPath id="clip3_66_2870"><path fill="#fff" transform="translate(309 47)" d="M0 0h18v18H0z"/></clipPath><linearGradient id="paint0_linear_66_2870" x1="8" y1="28" x2="42.097" y2="131.092" gradientUnits="userSpaceOnUse"><stop stop-color="#CFCFFC"/><stop offset="1" stop-color="#CFCFFC" stop-opacity="0"/></linearGradient><linearGradient id="paint2_linear_66_2870" x1="163" y1="17" x2="187" y2="65" gradientUnits="userSpaceOnUse"><stop stop-color="#fff"/><stop offset="1" stop-color="#fff" stop-opacity="0"/></linearGradient><filter id="filter0_b_66_2870" x="13" y="18" width="349" height="75" filterUnits="userSpaceOnUse" color-interpolation-filters="sRGB"><feFlood flood-opacity="0" result="BackgroundImageFix"/><feGaussianBlur in="BackgroundImageFix" stdDeviation="5"/><feComposite in2="SourceAlpha" operator="in" result="effect1_backgroundBlur_66_2870"/><feBlend in="SourceGraphic" in2="effect1_backgroundBlur_66_2870" result="shape"/></filter><filter id="filter1_d_66_2870" x="138" y="0" width="98" height="98" filterUnits="userSpaceOnUse" color-interpolation-filters="sRGB"><feFlood flood-opacity="0" result="BackgroundImageFix"/><feColorMatrix in="SourceAlpha" values="0 0 0 0 0 0 0 0 0 0 0 0 0 0 0 0 0 0 127 0" result="hardAlpha"/><feOffset dy="8"/><feGaussianBlur stdDeviation="12.5"/><feComposite in2="hardAlpha" operator="out"/><feColorMatrix values="0 0 0 0 1 0 0 0 0 0.47451 0 0 0 0 0.4 0 0 0 0.5 0"/><feBlend in2="BackgroundImageFix" result="effect1_dropShadow_66_2870"/><feBlend in="SourceGraphic" in2="effect1_dropShadow_66_2870" result="shape"/></filter><radialGradient id="paint1_radial_66_2870" cx="0" cy="0" r="1" gradientUnits="userSpaceOnUse" gradientTransform="matrix(0 -48 48 0 187 65)"><stop offset=".433" stop-color="#fff" stop-opacity="0"/><stop offset="1" stop-color="#FF7F37"/></radialGradient></defs></svg>