<svg width="40" height="28" fill="none" xmlns="http://www.w3.org/2000/svg"><path d="M24.75 1H35a4 4 0 0 1 4 4v18a4 4 0 0 1-4 4H5a4 4 0 0 1-4-4V5a4 4 0 0 1 4-4h19.75Z" fill="#F6C859"/><path d="M15.25 1h9.5m-9.5 0H5a4 4 0 0 0-4 4v5.389M15.25 1v4.694M24.75 1H35a4 4 0 0 1 4 4v5.389M24.75 1v4.694h-9.5m0 21.306H5a4 4 0 0 1-4-4v-5.389M15.25 27h9.5m-9.5 0v-4.694M24.75 27H35a4 4 0 0 0 4-4v-5.389M24.75 27v-4.694M1 17.61V10.39m0 7.222h14.25m23.75 0V10.39m0 7.222H24.75M1 10.39h14.25m23.75 0H24.75v7.222m-9.5-7.222v7.222m0-7.222V5.694m0 11.917v4.695m9.5-4.695v4.695m-9.5 0h9.5" stroke="#7D662D"/></svg>