<svg width="286" height="243" fill="none" xmlns="http://www.w3.org/2000/svg"><g filter="url('#filter0_b_66_3610')"><mask id="path-1-inside-1_66_3610" fill="#fff"><path d="M45.423 240.577c-1.955 1.955-5.13 1.961-7.016-.061A142.998 142.998 0 0 1 63.554 24.1a143 143 0 0 1 184.039 216.416c-1.885 2.022-5.061 2.016-7.016.061-1.954-1.954-1.947-5.117-.067-7.144a132.994 132.994 0 0 0 25.357-141.326A132.994 132.994 0 0 0 143 10.01a132.99 132.99 0 0 0-97.51 223.423c1.88 2.027 1.887 5.19-.067 7.144Z"/></mask><path d="M45.423 240.577c-1.955 1.955-5.13 1.961-7.016-.061A142.998 142.998 0 0 1 63.554 24.1a143 143 0 0 1 184.039 216.416c-1.885 2.022-5.061 2.016-7.016.061-1.954-1.954-1.947-5.117-.067-7.144a132.994 132.994 0 0 0 25.357-141.326A132.994 132.994 0 0 0 143 10.01a132.99 132.99 0 0 0-97.51 223.423c1.88 2.027 1.887 5.19-.067 7.144Z" fill="#4E4E61" fill-opacity=".2"/><path d="M45.423 240.577c-1.955 1.955-5.13 1.961-7.016-.061A142.998 142.998 0 0 1 63.554 24.1a143 143 0 0 1 184.039 216.416c-1.885 2.022-5.061 2.016-7.016.061-1.954-1.954-1.947-5.117-.067-7.144a132.994 132.994 0 0 0 25.357-141.326A132.994 132.994 0 0 0 143 10.01a132.99 132.99 0 0 0-97.51 223.423c1.88 2.027 1.887 5.19-.067 7.144Z" stroke="url('#paint0_linear_66_3610')" stroke-opacity=".15" stroke-width="2" mask="url('#path-1-inside-1_66_3610')"/></g><defs><linearGradient id="paint0_linear_66_3610" x1="286" y1="0" x2="59.188" y2="105.06" gradientUnits="userSpaceOnUse"><stop stop-color="#CFCFFC"/><stop offset="1" stop-color="#CFCFFC" stop-opacity="0"/></linearGradient><filter id="filter0_b_66_3610" x="-10" y="-10" width="306" height="262.038" filterUnits="userSpaceOnUse" color-interpolation-filters="sRGB"><feFlood flood-opacity="0" result="BackgroundImageFix"/><feGaussianBlur in="BackgroundImageFix" stdDeviation="5"/><feComposite in2="SourceAlpha" operator="in" result="effect1_backgroundBlur_66_3610"/><feBlend in="SourceGraphic" in2="effect1_backgroundBlur_66_3610" result="shape"/></filter></defs></svg>