<svg width="61" height="61" fill="none" xmlns="http://www.w3.org/2000/svg"><g clip-path="url('#clip0_40_1956')"><path d="M30.498.1C13.706.1.093 13.715.093 30.508s13.614 30.406 30.407 30.406c16.794 0 30.407-13.613 30.407-30.406C60.906 13.715 47.293.102 30.498.102V.101Zm13.945 43.855a1.894 1.894 0 0 1-2.607.628c-7.14-4.36-16.127-5.348-26.711-2.93a1.896 1.896 0 0 1-.843-3.696C25.864 35.31 35.8 36.45 43.815 41.348a1.895 1.895 0 0 1 .628 2.607Zm3.721-8.28a2.37 2.37 0 0 1-3.26.782c-8.173-5.025-20.632-6.48-30.3-3.545a2.374 2.374 0 0 1-2.958-1.58 2.374 2.374 0 0 1 1.58-2.956c11.044-3.35 24.772-1.728 34.158 4.04a2.37 2.37 0 0 1 .78 3.26v-.001Zm.32-8.621c-9.8-5.821-25.969-6.356-35.325-3.517a2.844 2.844 0 1 1-1.651-5.442c10.74-3.261 28.596-2.631 39.879 4.067a2.84 2.84 0 0 1 .995 3.897 2.842 2.842 0 0 1-3.896.994h-.002Z" fill="#fff"/></g><defs><clipPath id="clip0_40_1956"><path fill="#fff" d="M0 0h61v61H0z"/></clipPath></defs></svg>