<svg width="55" height="55" fill="none" xmlns="http://www.w3.org/2000/svg"><g clip-path="url('#clip0_42_2113')"><path d="M27.5 0C12.312 0 0 12.312 0 27.5 0 42.69 12.312 55 27.5 55 42.689 55 55 42.689 55 27.5 55 12.313 42.689.001 27.5.001V0ZM40.11 39.663a1.713 1.713 0 0 1-2.358.568c-6.456-3.944-14.584-4.837-24.157-2.65a1.715 1.715 0 0 1-.763-3.343c10.476-2.394 19.461-1.363 26.71 3.067a1.714 1.714 0 0 1 .568 2.358Zm3.366-7.489a2.143 2.143 0 0 1-2.949.708c-7.392-4.545-18.66-5.86-27.403-3.207a2.147 2.147 0 0 1-2.675-1.428 2.147 2.147 0 0 1 1.43-2.674c9.986-3.03 22.402-1.563 30.891 3.654a2.143 2.143 0 0 1 .706 2.948Zm.289-7.797c-8.863-5.265-23.486-5.749-31.948-3.18a2.572 2.572 0 1 1-1.493-4.923c9.714-2.949 25.862-2.38 36.066 3.679a2.57 2.57 0 0 1 .9 3.524 2.57 2.57 0 0 1-3.524.9h-.001Z" fill="#fff"/></g><defs><clipPath id="clip0_42_2113"><path fill="#fff" d="M0 0h55v55H0z"/></clipPath></defs></svg>