<svg width="671" height="573" fill="none" xmlns="http://www.w3.org/2000/svg"><g opacity=".25" filter="url('#filter0_f_32_4768')"><ellipse cx="109" cy="74" rx="109" ry="74" transform="matrix(.98596 -.16696 .39036 .92066 275.825 305.286)" fill="#AD7BFF"/><path d="M518.738 337.174c7.821 18.446 3.149 37.241-10.951 52.73-14.096 15.486-37.563 27.59-67.081 32.589-29.519 4.998-59.418 1.93-83.878-7.026-24.465-8.959-43.382-23.76-51.203-42.206-7.821-18.447-3.149-37.242 10.95-52.731 14.097-15.485 37.563-27.59 67.082-32.589 29.518-4.998 59.418-1.93 83.877 7.026 24.466 8.959 43.382 23.76 51.204 42.207Z" stroke="url('#paint0_linear_32_4768')" stroke-opacity=".25" stroke-width="1.854"/><ellipse cx="149.5" cy="101" rx="149.5" ry="101" transform="matrix(.98596 -.16696 .39036 .92066 174.924 175.996)" fill="#FF7966"/><path d="M508.239 219.218c10.731 25.308 4.227 51.075-15.192 72.287-19.415 21.208-51.685 37.786-92.231 44.652-40.546 6.866-81.61 2.705-115.203-9.526-33.6-12.235-59.618-32.494-70.349-57.803-10.731-25.308-4.227-51.075 15.192-72.287 19.415-21.208 51.685-37.786 92.231-44.652 40.546-6.866 81.61-2.705 115.203 9.527 33.6 12.234 59.618 32.493 70.349 57.802Z" stroke="url('#paint1_linear_32_4768')" stroke-opacity=".25" stroke-width="1.854"/><circle cx="188.57" cy="302.267" r="41.5" transform="rotate(-15 188.57 302.267)" fill="#00FAD9"/><circle cx="188.57" cy="302.267" r="40.951" transform="rotate(-15 188.57 302.267)" stroke="url('#paint2_linear_32_4768')" stroke-opacity=".25" stroke-width="1.099"/></g><defs><linearGradient id="paint0_linear_32_4768" x1="275.825" y1="305.286" x2="365.882" y2="465.586" gradientUnits="userSpaceOnUse"><stop stop-color="#fff"/><stop offset="1" stop-color="#fff" stop-opacity="0"/></linearGradient><linearGradient id="paint1_linear_32_4768" x1="174.924" y1="175.996" x2="297.494" y2="395.031" gradientUnits="userSpaceOnUse"><stop stop-color="#fff"/><stop offset="1" stop-color="#fff" stop-opacity="0"/></linearGradient><linearGradient id="paint2_linear_32_4768" x1="147.07" y1="260.767" x2="188.57" y2="343.767" gradientUnits="userSpaceOnUse"><stop stop-color="#fff"/><stop offset="1" stop-color="#fff" stop-opacity="0"/></linearGradient><filter id="filter0_f_32_4768" x="-69.761" y="-93.088" width="807.462" height="759.378" filterUnits="userSpaceOnUse" color-interpolation-filters="sRGB"><feFlood flood-opacity="0" result="BackgroundImageFix"/><feBlend in="SourceGraphic" in2="BackgroundImageFix" result="shape"/><feGaussianBlur stdDeviation="73.38" result="effect1_foregroundBlur_32_4768"/></filter></defs></svg>