<svg width="40" height="40" fill="none" xmlns="http://www.w3.org/2000/svg"><rect width="40" height="40" rx="12" fill="red"/><g clip-path="url('#clip0_12_3195')"><path d="M31.506 14.504c-.277-.98-1.088-1.751-2.116-2.015C27.512 12 20 12 20 12s-7.512 0-9.39.47c-1.009.264-1.839 1.055-2.116 2.034C8 16.291 8 20 8 20s0 3.727.494 5.497c.277.978 1.088 1.75 2.116 2.014C12.507 28 20 28 20 28s7.512 0 9.39-.47c1.028-.264 1.839-1.036 2.116-2.015C32 23.727 32 20.02 32 20.02s.02-3.727-.494-5.515Z" fill="#fff"/><path d="m23.855 20-6.247-3.426v6.852L23.855 20Z" fill="red"/></g><defs><clipPath id="clip0_12_3195"><path fill="#fff" transform="translate(8 12)" d="M0 0h24v16H0z"/></clipPath></defs></svg>