<svg width="32" height="32" fill="none" xmlns="http://www.w3.org/2000/svg"><g clip-path="url('#clip0_12_3023')" fill="#A2A2B5"><path d="M9 18a1 1 0 1 0 0-2 1 1 0 0 0 0 2ZM5 14a1 1 0 1 0 0-2 1 1 0 0 0 0 2ZM9 10a1 1 0 1 0 0-2 1 1 0 0 0 0 2ZM5 6a1 1 0 1 0 0-2 1 1 0 0 0 0 2ZM27 18a1 1 0 1 0 0-2 1 1 0 0 0 0 2ZM23 14a1 1 0 1 0 0-2 1 1 0 0 0 0 2ZM27 10a1 1 0 1 0 0-2 1 1 0 0 0 0 2ZM23 6a1 1 0 1 0 0-2 1 1 0 0 0 0 2ZM18 28a1 1 0 1 0 0-2 1 1 0 0 0 0 2ZM14 24a1 1 0 1 0 0-2 1 1 0 0 0 0 2ZM18 20a1 1 0 1 0 0-2 1 1 0 0 0 0 2ZM14 16a1 1 0 1 0 0-2 1 1 0 0 0 0 2ZM19 7a2 2 0 0 1-2-2 1 1 0 1 0-2 0 2 2 0 0 1-2 2 1 1 0 0 0 0 2 2 2 0 0 1 2 2 1 1 0 0 0 2 0 2 2 0 0 1 2-2 1 1 0 1 0 0-2ZM11 23a2 2 0 0 1-2-2 1 1 0 1 0-2 0 2 2 0 0 1-2 2 1 1 0 1 0 0 2 2 2 0 0 1 2 2 1 1 0 0 0 2 0 2 2 0 0 1 2-2 1 1 0 0 0 0-2ZM27 23a2 2 0 0 1-2-2 1 1 0 0 0-2 0 2 2 0 0 1-2 2 1 1 0 1 0 0 2 2 2 0 0 1 2 2 1 1 0 1 0 2 0 2 2 0 0 1 2-2 1 1 0 0 0 0-2Z"/></g><defs><clipPath id="clip0_12_3023"><path fill="#fff" transform="translate(4 4)" d="M0 0h24v24H0z"/></clipPath></defs></svg>