<svg width="16" height="16" fill="none" xmlns="http://www.w3.org/2000/svg"><path d="M12.472 8.45c-.008-1.295.579-2.272 1.764-2.992-.663-.95-1.666-1.472-2.988-1.572-1.252-.1-2.621.73-3.123.73-.53 0-1.741-.696-2.695-.696-1.968.03-4.06 1.569-4.06 4.7 0 .924.17 1.88.508 2.864.452 1.295 2.082 4.47 3.782 4.418.889-.021 1.518-.63 2.674-.63 1.123 0 1.704.63 2.696.63 1.715-.025 3.189-2.91 3.618-4.21-2.3-1.084-2.176-3.175-2.176-3.242Zm-1.997-5.793c.963-1.144.876-2.185.847-2.559-.85.05-1.835.58-2.395 1.23-.617.7-.98 1.564-.902 2.539.92.07 1.759-.403 2.45-1.21Z" fill="#fff"/></svg>