<svg width="17" height="16" fill="none" xmlns="http://www.w3.org/2000/svg"><g clip-path="url('#clip0_32_4487')"><path fill-rule="evenodd" clip-rule="evenodd" d="M.5 8.045c0 3.977 2.889 7.284 6.667 7.955v-5.778h-2V8h2V6.222c0-2 1.288-3.11 3.111-3.11.577 0 1.2.088 1.777.177v2.044h-1.022c-.978 0-1.2.489-1.2 1.112V8h2.134l-.356 2.222H9.833V16c3.778-.67 6.667-3.977 6.667-7.955C16.5 3.62 12.9 0 8.5 0s-8 3.62-8 8.045Z" fill="#fff"/></g><defs><clipPath id="clip0_32_4487"><path fill="#fff" transform="translate(.5)" d="M0 0h16v16H0z"/></clipPath></defs></svg>