<svg width="32" height="32" fill="none" xmlns="http://www.w3.org/2000/svg"><g clip-path="url('#clip0_12_2997')"><path d="M24.9 8.291a5.01 5.01 0 0 0-4.7-3.29h-8.4a5.011 5.011 0 0 0-4.7 3.29l-2.7 7.427A6.664 6.664 0 0 0 4 18v1a4.979 4.979 0 0 0 2 3.978V25a3 3 0 1 0 6 0v-1h8v1a3 3 0 0 0 6 0v-2.022A4.979 4.979 0 0 0 28 19v-1a6.656 6.656 0 0 0-.4-2.28L24.9 8.29Zm-15.918.684A3.009 3.009 0 0 1 11.8 7h8.4a3.01 3.01 0 0 1 2.82 1.975L25.208 15H6.79l2.19-6.025ZM10 25a1 1 0 1 1-2 0v-1.1c.329.067.664.1 1 .1h1v1Zm14 0a1 1 0 0 1-2 0v-1h1c.336 0 .67-.033 1-.1V25Zm2-6a3 3 0 0 1-3 3H9a3 3 0 0 1-3-3v-1a4.66 4.66 0 0 1 .12-1H8v1a1 1 0 1 0 2 0v-1h12v1a1 1 0 1 0 2 0v-1h1.879c.076.328.117.663.12 1v1Z" fill="#A2A2B5"/></g><defs><clipPath id="clip0_12_2997"><path fill="#fff" transform="translate(4 4)" d="M0 0h24v24H0z"/></clipPath></defs></svg>