<svg width="32" height="32" fill="none" xmlns="http://www.w3.org/2000/svg"><g clip-path="url('#clip0_12_5778')"><path d="M9.972 26.284a1 1 0 0 1-.515-1.857C13 22.299 13 17.729 13 14.999a3 3 0 1 1 6 0 1 1 0 0 1-2 0 1 1 0 0 0-2 0c0 2.947 0 8.434-4.514 11.143a1.001 1.001 0 0 1-.514.142Zm4.963 1.421c2.282-2.3 3.615-5.534 3.961-9.621a1 1 0 0 0-.911-1.085.982.982 0 0 0-1.081.911c-.311 3.657-1.419 6.4-3.388 8.381a1 1 0 1 0 1.419 1.41v.004Zm5.2-.186a17.796 17.796 0 0 0 1.508-3.181 1 1 0 0 0-1.881-.678c-.352.982-.8 1.927-1.338 2.821a1 1 0 1 0 1.711 1.038ZM22.5 21.19c.37-2.042.538-4.116.5-6.191a7 7 0 0 0-12.213-4.667.998.998 0 0 0 .794 1.686 1 1 0 0 0 .695-.352A5 5 0 0 1 21 14.999a29.688 29.688 0 0 1-.462 5.809 1 1 0 0 0 1.962.382ZM11 14.999c0-.28.023-.558.069-.833a1 1 0 1 0-1.969-.334 6.97 6.97 0 0 0-.1 1.167c0 4.645-1.346 7-4 7a1 1 0 1 0 0 2c3.869 0 6-3.2 6-9Zm13.7 12.414A29.76 29.76 0 0 0 27 14.999a10.865 10.865 0 0 0-1.1-4.794 1.002 1.002 0 0 0-1.8.875 8.9 8.9 0 0 1 .9 3.919 27.91 27.91 0 0 1-2.119 11.586 1 1 0 0 0 1.819.828ZM7 17.999v-3a9.01 9.01 0 0 1 9-9 8.91 8.91 0 0 1 5.4 1.8 1 1 0 0 0 1.2-1.6 10.9 10.9 0 0 0-6.6-2.2 11.013 11.013 0 0 0-11 11v3a1 1 0 0 0 2 0Z" fill="#A2A2B5"/></g><defs><clipPath id="clip0_12_5778"><path fill="#fff" transform="translate(4 4)" d="M0 0h24v24H0z"/></clipPath></defs></svg>