<svg width="40" height="40" fill="none" xmlns="http://www.w3.org/2000/svg"><rect width="40" height="40" rx="12" fill="red"/><g clip-path="url('#clip0_32_2772')"><path d="M32.485 13.66c-.288-1.04-1.133-1.86-2.203-2.14C28.325 11 20.5 11 20.5 11s-7.825 0-9.782.5c-1.05.28-1.915 1.12-2.203 2.16C8 15.56 8 19.5 8 19.5s0 3.96.515 5.84c.288 1.04 1.132 1.86 2.203 2.14C12.695 28 20.5 28 20.5 28s7.825 0 9.782-.5c1.07-.28 1.915-1.1 2.203-2.14.515-1.9.515-5.84.515-5.84s.02-3.96-.515-5.86Z" fill="#fff"/><path d="m24.516 19.5-6.508-3.64v7.28l6.508-3.64Z" fill="red"/></g><defs><clipPath id="clip0_32_2772"><path fill="#fff" transform="translate(8 11)" d="M0 0h25v17H0z"/></clipPath></defs></svg>