<svg width="178" height="29" fill="none" xmlns="http://www.w3.org/2000/svg"><g clip-path="url('#clip0_66_2523')"><path d="M14 29c-3.713 0-7.274-1.444-9.9-4.015-2.625-2.57-4.1-6.057-4.1-9.693h28c0 3.636-1.475 7.122-4.1 9.693C21.273 27.555 17.712 29 14 29Z" fill="#5E00F5"/><path d="M26.467 13.706a12.088 12.088 0 0 0-3.714-8.52 12.608 12.608 0 0 0-8.754-3.515c-3.277 0-6.421 1.263-8.754 3.515a12.088 12.088 0 0 0-3.715 8.52H0c0-3.636 1.475-7.123 4.1-9.693C6.727 1.442 10.288-.002 14-.002s7.274 1.444 9.9 4.015c2.625 2.57 4.1 6.057 4.1 9.693h-1.533Z" fill="#FF7966"/><path d="M14 3.43a10.62 10.62 0 0 1 7.418 3.013 10.18 10.18 0 0 1 3.078 7.263h-1.532a8.691 8.691 0 0 0-2.68-6.112A9.066 9.066 0 0 0 14 5.075a9.066 9.066 0 0 0-6.286 2.52 8.692 8.692 0 0 0-2.679 6.11h-1.53a10.18 10.18 0 0 1 3.078-7.262A10.62 10.62 0 0 1 14 3.431Z" fill="#FFD2CC"/></g><path d="M46.681 23.54V8.56h-5.494v-3.1H55.73v3.1h-5.494v14.98H46.68ZM58.17 23.54V5.46h8.186c1.185 0 2.217.198 3.097.594.88.396 1.562.956 2.046 1.68.485.722.728 1.575.728 2.556v.31c0 1.085-.27 1.963-.808 2.634a4.73 4.73 0 0 1-1.993 1.473v.464c.718.035 1.275.276 1.67.724.394.43.592 1.007.592 1.73v5.915h-3.555v-5.424c0-.413-.117-.75-.35-1.008-.215-.258-.583-.387-1.104-.387h-4.955v6.819h-3.555Zm3.554-9.918h4.255c.844 0 1.499-.215 1.966-.646.484-.448.727-1.033.727-1.756v-.258c0-.723-.234-1.3-.7-1.73-.467-.448-1.131-.672-1.993-.672h-4.255v5.062ZM73.91 23.54l4.956-18.08h6.194l4.955 18.08h-3.663l-1.023-3.978h-6.733l-1.023 3.977h-3.662Zm5.521-7.129h5.063l-2.29-8.807h-.484l-2.289 8.807ZM99.295 23.901c-2.334 0-4.183-.62-5.547-1.86-1.365-1.256-2.047-3.047-2.047-5.372v-4.338c0-2.325.682-4.107 2.047-5.347C95.112 5.727 96.96 5.1 99.295 5.1c2.316 0 4.103.611 5.359 1.834 1.275 1.205 1.913 2.866 1.913 4.984v.155h-3.501v-.258c0-1.068-.315-1.946-.943-2.634-.61-.69-1.553-1.034-2.828-1.034-1.256 0-2.244.37-2.962 1.111-.718.74-1.077 1.748-1.077 3.022v4.442c0 1.257.359 2.264 1.077 3.022.718.74 1.706 1.11 2.962 1.11 1.275 0 2.218-.344 2.828-1.033.628-.706.943-1.584.943-2.634v-.465h3.501v.362c0 2.118-.638 3.788-1.913 5.01-1.256 1.205-3.043 1.808-5.359 1.808ZM109.482 23.54V5.46h3.554v7.18h.485l6.113-7.18h4.551l-7.863 8.91 8.133 9.17h-4.686l-6.248-7.335h-.485v7.335h-3.554ZM126.358 23.54V5.46h3.555v18.08h-3.555ZM132.939 23.54V19.2l9.318-10.279v-.413h-9.049V5.46h12.765V9.8l-9.318 10.279v.413h9.372v3.047h-13.088ZM149.012 23.54V5.46h12.119v3.1h-8.564v4.313h7.81v3.1h-7.81v4.467h8.725v3.1h-12.28ZM163.943 23.54V5.46h8.186c1.185 0 2.217.198 3.097.594.88.396 1.562.956 2.047 1.68.485.722.727 1.575.727 2.556v.31c0 1.085-.269 1.963-.808 2.634a4.733 4.733 0 0 1-1.993 1.473v.464c.718.035 1.275.276 1.67.724.395.43.592 1.007.592 1.73v5.915h-3.554v-5.424c0-.413-.117-.75-.35-1.008-.216-.258-.584-.387-1.105-.387h-4.955v6.819h-3.554Zm3.554-9.918h4.255c.844 0 1.499-.215 1.966-.646.485-.448.727-1.033.727-1.756v-.258c0-.723-.233-1.3-.7-1.73-.467-.448-1.131-.672-1.993-.672h-4.255v5.062Z" fill="#fff"/><defs><clipPath id="clip0_66_2523"><path fill="#fff" transform="matrix(1 0 0 -1 0 29)" d="M0 0h28v29H0z"/></clipPath></defs></svg>