<svg width="146" height="24" fill="none" xmlns="http://www.w3.org/2000/svg"><g clip-path="url('#clip0_66_2544')"><path d="M11.483 24a11.555 11.555 0 0 1-8.12-3.323A11.276 11.276 0 0 1 0 12.656h22.966c0 3.008-1.21 5.894-3.363 8.021A11.555 11.555 0 0 1 11.483 24Z" fill="#5E00F5"/><path d="M21.71 11.342a10.046 10.046 0 0 0-3.048-7.05 10.293 10.293 0 0 0-7.18-2.909 10.293 10.293 0 0 0-7.18 2.909 10.046 10.046 0 0 0-3.047 7.05H0c0-3.008 1.21-5.894 3.363-8.021a11.555 11.555 0 0 1 8.12-3.323c3.046 0 5.966 1.195 8.12 3.323a11.276 11.276 0 0 1 3.363 8.021H21.71Z" fill="#FF7966"/><path d="M11.483 2.84a8.671 8.671 0 0 1 6.085 2.492 8.462 8.462 0 0 1 2.524 6.01h-1.257a7.223 7.223 0 0 0-2.197-5.057A7.4 7.4 0 0 0 11.482 4.2a7.4 7.4 0 0 0-5.156 2.085 7.223 7.223 0 0 0-2.197 5.057H2.874a8.462 8.462 0 0 1 2.525-6.01 8.671 8.671 0 0 1 6.084-2.493Z" fill="#FFD2CC"/></g><path d="M38.289 19.48V7.085h-4.506V4.519H45.71v2.565h-4.506V19.48h-2.916ZM47.712 19.48V4.52h6.715c.972 0 1.818.164 2.54.492.721.327 1.281.79 1.679 1.389.397.598.596 1.304.596 2.116v.256c0 .898-.22 1.625-.663 2.18a3.883 3.883 0 0 1-1.634 1.219v.385c.589.028 1.045.228 1.37.598.323.356.485.834.485 1.432v4.895h-2.915v-4.489c0-.342-.096-.62-.288-.833-.176-.214-.478-.32-.905-.32h-4.065v5.642h-2.915Zm2.915-8.207h3.49c.693 0 1.23-.178 1.613-.534.398-.37.596-.855.596-1.454v-.213c0-.599-.191-1.076-.574-1.432-.383-.37-.928-.556-1.635-.556h-3.49v4.19ZM60.623 19.48 64.688 4.52h5.08l4.064 14.962h-3.004l-.84-3.292h-5.521l-.84 3.292h-3.004Zm4.528-5.898h4.153l-1.877-7.289h-.398l-1.878 7.289ZM81.445 19.78c-1.915 0-3.432-.513-4.55-1.539-1.12-1.04-1.68-2.522-1.68-4.446v-3.59c0-1.924.56-3.399 1.68-4.425 1.118-1.04 2.635-1.56 4.55-1.56 1.9 0 3.364.506 4.395 1.517 1.046.998 1.569 2.373 1.569 4.126v.128h-2.872v-.214c0-.883-.258-1.61-.773-2.18-.5-.57-1.274-.855-2.32-.855-1.03 0-1.84.306-2.43.919-.588.613-.883 1.446-.883 2.5v3.677c0 1.04.295 1.874.884 2.5.589.614 1.399.92 2.43.92 1.045 0 1.818-.285 2.319-.855.515-.584.773-1.31.773-2.18v-.385h2.871v.3c0 1.752-.522 3.134-1.568 4.146-1.03.997-2.496 1.496-4.395 1.496ZM89.8 19.48V4.52h2.915v5.942h.398l5.014-5.942h3.733l-6.45 7.374 6.671 7.588h-3.844l-5.124-6.07h-.398v6.07H89.8ZM103.642 19.48V4.52h2.916v14.962h-2.916ZM109.04 19.48v-3.59l7.642-8.507v-.342h-7.421V4.52h10.47v3.59l-7.643 8.508v.342h7.687v2.522H109.04ZM122.224 19.48V4.52h9.94v2.565h-7.025v3.57h6.406v2.564h-6.406v3.698h7.157v2.565h-10.072ZM134.47 19.48V4.52h6.715c.972 0 1.818.164 2.54.492.721.327 1.281.79 1.679 1.389.397.598.596 1.304.596 2.116v.256c0 .898-.221 1.625-.663 2.18a3.877 3.877 0 0 1-1.634 1.219v.385c.589.028 1.045.228 1.369.598.324.356.486.834.486 1.432v4.895h-2.915v-4.489c0-.342-.096-.62-.288-.833-.176-.214-.478-.32-.905-.32h-4.065v5.642h-2.915Zm2.915-8.207h3.49c.693 0 1.23-.178 1.613-.534.397-.37.596-.855.596-1.454v-.213c0-.599-.191-1.076-.574-1.432-.383-.37-.928-.556-1.635-.556h-3.49v4.19Z" fill="#fff"/><defs><clipPath id="clip0_66_2544"><path fill="#fff" transform="matrix(1 0 0 -1 0 24)" d="M0 0h22.966v24H0z"/></clipPath></defs></svg>