<svg width="336" height="293" fill="none" xmlns="http://www.w3.org/2000/svg"><g filter="url('#filter0_d_42_2058')"><mask id="path-1-inside-1_42_2058" fill="#fff"><path d="M70.423 265.577c-1.955 1.955-5.13 1.961-7.016-.061a143.004 143.004 0 0 1-.977-193.974 142.998 142.998 0 0 1 197.173-13.35 143.004 143.004 0 0 1 50.585 125.024c-.294 2.748-2.838 4.65-5.574 4.26-2.737-.39-4.629-2.925-4.342-5.674a132.987 132.987 0 0 0-47.081-115.924A132.99 132.99 0 0 0 70.49 258.433c1.88 2.027 1.887 5.19-.067 7.144Z"/></mask><path d="M70.423 265.577c-1.955 1.955-5.13 1.961-7.016-.061a143.004 143.004 0 0 1-.977-193.974 142.998 142.998 0 0 1 197.173-13.35 143.004 143.004 0 0 1 50.585 125.024c-.294 2.748-2.838 4.65-5.574 4.26-2.737-.39-4.629-2.925-4.342-5.674a132.987 132.987 0 0 0-47.081-115.924A132.99 132.99 0 0 0 70.49 258.433c1.88 2.027 1.887 5.19-.067 7.144Z" fill="#FF7966"/><path d="M70.423 265.577c-1.955 1.955-5.13 1.961-7.016-.061a143.004 143.004 0 0 1-.977-193.974 142.998 142.998 0 0 1 197.173-13.35 143.004 143.004 0 0 1 50.585 125.024c-.294 2.748-2.838 4.65-5.574 4.26-2.737-.39-4.629-2.925-4.342-5.674a132.987 132.987 0 0 0-47.081-115.924A132.99 132.99 0 0 0 70.49 258.433c1.88 2.027 1.887 5.19-.067 7.144Z" fill="url('#paint0_radial_42_2058')" fill-opacity=".5"/><path d="M70.423 265.577c-1.955 1.955-5.13 1.961-7.016-.061a143.004 143.004 0 0 1-.977-193.974 142.998 142.998 0 0 1 197.173-13.35 143.004 143.004 0 0 1 50.585 125.024c-.294 2.748-2.838 4.65-5.574 4.26-2.737-.39-4.629-2.925-4.342-5.674a132.987 132.987 0 0 0-47.081-115.924A132.99 132.99 0 0 0 70.49 258.433c1.88 2.027 1.887 5.19-.067 7.144Z" stroke="url('#paint1_linear_42_2058')" stroke-opacity=".5" stroke-width="2" mask="url('#path-1-inside-1_42_2058')"/></g><defs><radialGradient id="paint0_radial_42_2058" cx="0" cy="0" r="1" gradientUnits="userSpaceOnUse" gradientTransform="matrix(0 -286 286 0 168 311)"><stop offset=".433" stop-color="#fff" stop-opacity="0"/><stop offset="1" stop-color="#FF7F37"/></radialGradient><linearGradient id="paint1_linear_42_2058" x1="311" y1="25" x2="168" y2="311" gradientUnits="userSpaceOnUse"><stop stop-color="#FFD2CC"/><stop offset="1" stop-color="#FFD2CC" stop-opacity="0"/></linearGradient><filter id="filter0_d_42_2058" x="0" y="0" width="336" height="292.038" filterUnits="userSpaceOnUse" color-interpolation-filters="sRGB"><feFlood flood-opacity="0" result="BackgroundImageFix"/><feColorMatrix in="SourceAlpha" values="0 0 0 0 0 0 0 0 0 0 0 0 0 0 0 0 0 0 127 0" result="hardAlpha"/><feOffset/><feGaussianBlur stdDeviation="12.5"/><feComposite in2="hardAlpha" operator="out"/><feColorMatrix values="0 0 0 0 1 0 0 0 0 0.47451 0 0 0 0 0.4 0 0 0 0.5 0"/><feBlend in2="BackgroundImageFix" result="effect1_dropShadow_42_2058"/><feBlend in="SourceGraphic" in2="effect1_dropShadow_42_2058" result="shape"/></filter></defs></svg>