<svg width="110" height="107" fill="none" xmlns="http://www.w3.org/2000/svg"><g filter="url('#filter0_d_19_2479')"><mask id="path-1-inside-1_19_2479" fill="#fff"><path d="M28.062 81.008c-2.643-1.191-3.832-4.307-2.51-6.888a105.002 105.002 0 0 1 51.41-48.338c2.657-1.16 5.694.218 6.72 2.93 1.027 2.711-.347 5.728-2.997 6.904A94.503 94.503 0 0 0 35.138 78.44c-1.337 2.573-4.433 3.759-7.076 2.567Z"/></mask><path d="M28.062 81.008c-2.643-1.191-3.832-4.307-2.51-6.888a105.002 105.002 0 0 1 51.41-48.338c2.657-1.16 5.694.218 6.72 2.93 1.027 2.711-.347 5.728-2.997 6.904A94.503 94.503 0 0 0 35.138 78.44c-1.337 2.573-4.433 3.759-7.076 2.567Z" fill="#FF7966"/><path d="M28.062 81.008c-2.643-1.191-3.832-4.307-2.51-6.888a105.002 105.002 0 0 1 51.41-48.338c2.657-1.16 5.694.218 6.72 2.93 1.027 2.711-.347 5.728-2.997 6.904A94.503 94.503 0 0 0 35.138 78.44c-1.337 2.573-4.433 3.759-7.076 2.567Z" fill="url('#paint0_radial_19_2479')" fill-opacity=".5"/><path d="M28.062 81.008c-2.643-1.191-3.832-4.307-2.51-6.888a105.002 105.002 0 0 1 51.41-48.338c2.657-1.16 5.694.218 6.72 2.93 1.027 2.711-.347 5.728-2.997 6.904A94.503 94.503 0 0 0 35.138 78.44c-1.337 2.573-4.433 3.759-7.076 2.567Z" stroke="url('#paint1_linear_19_2479')" stroke-opacity=".5" stroke-width="2" mask="url('#path-1-inside-1_19_2479')"/></g><defs><radialGradient id="paint0_radial_19_2479" cx="0" cy="0" r="1" gradientUnits="userSpaceOnUse" gradientTransform="matrix(0 -210 210 0 119 227)"><stop offset=".433" stop-color="#fff" stop-opacity="0"/><stop offset="1" stop-color="#FF7F37"/></radialGradient><linearGradient id="paint1_linear_19_2479" x1="14" y1="17" x2="119" y2="227" gradientUnits="userSpaceOnUse"><stop stop-color="#FFD2CC"/><stop offset="1" stop-color="#FFD2CC" stop-opacity="0"/></linearGradient><filter id="filter0_d_19_2479" x=".009" y=".369" width="109.015" height="106.105" filterUnits="userSpaceOnUse" color-interpolation-filters="sRGB"><feFlood flood-opacity="0" result="BackgroundImageFix"/><feColorMatrix in="SourceAlpha" values="0 0 0 0 0 0 0 0 0 0 0 0 0 0 0 0 0 0 127 0" result="hardAlpha"/><feOffset/><feGaussianBlur stdDeviation="12.5"/><feComposite in2="hardAlpha" operator="out"/><feColorMatrix values="0 0 0 0 1 0 0 0 0 0.47451 0 0 0 0 0.4 0 0 0 0.5 0"/><feBlend in2="BackgroundImageFix" result="effect1_dropShadow_19_2479"/><feBlend in="SourceGraphic" in2="effect1_dropShadow_19_2479" result="shape"/></filter></defs></svg>