<svg width="161" height="93" fill="none" xmlns="http://www.w3.org/2000/svg"><g filter="url('#filter0_d_19_2480')"><mask id="path-1-inside-1_19_2480" fill="#fff"><path d="M25.664 35.3c-.91-2.753.58-5.736 3.374-6.508A105 105 0 0 1 134.02 58.635c1.97 2.127 1.668 5.448-.554 7.31-2.223 1.862-5.524 1.558-7.506-.558a94.502 94.502 0 0 0-93.62-26.613c-2.798.757-5.765-.721-6.676-3.474Z"/></mask><path d="M25.664 35.3c-.91-2.753.58-5.736 3.374-6.508A105 105 0 0 1 134.02 58.635c1.97 2.127 1.668 5.448-.554 7.31-2.223 1.862-5.524 1.558-7.506-.558a94.502 94.502 0 0 0-93.62-26.613c-2.798.757-5.765-.721-6.676-3.474Z" fill="#AD7BFF"/><path d="M25.664 35.3c-.91-2.753.58-5.736 3.374-6.508A105 105 0 0 1 134.02 58.635c1.97 2.127 1.668 5.448-.554 7.31-2.223 1.862-5.524 1.558-7.506-.558a94.502 94.502 0 0 0-93.62-26.613c-2.798.757-5.765-.721-6.676-3.474Z" stroke="url('#paint0_linear_19_2480')" stroke-opacity=".25" stroke-width="2" mask="url('#path-1-inside-1_19_2480')"/></g><defs><linearGradient id="paint0_linear_19_2480" x1="-48" y1="25" x2="57" y2="235" gradientUnits="userSpaceOnUse"><stop stop-color="#fff"/><stop offset="1" stop-color="#fff" stop-opacity="0"/></linearGradient><filter id="filter0_d_19_2480" x=".397" y="0" width="159.935" height="92.175" filterUnits="userSpaceOnUse" color-interpolation-filters="sRGB"><feFlood flood-opacity="0" result="BackgroundImageFix"/><feColorMatrix in="SourceAlpha" values="0 0 0 0 0 0 0 0 0 0 0 0 0 0 0 0 0 0 127 0" result="hardAlpha"/><feOffset/><feGaussianBlur stdDeviation="12.5"/><feComposite in2="hardAlpha" operator="out"/><feColorMatrix values="0 0 0 0 0.678431 0 0 0 0 0.482353 0 0 0 0 1 0 0 0 0.5 0"/><feBlend in2="BackgroundImageFix" result="effect1_dropShadow_19_2480"/><feBlend in="SourceGraphic" in2="effect1_dropShadow_19_2480" result="shape"/></filter></defs></svg>