<svg width="23" height="23" fill="none" xmlns="http://www.w3.org/2000/svg"><g clip-path="url('#clip0_32_2767')"><path d="M11.5.038C5.167.038.034 5.171.034 11.503s5.133 11.464 11.464 11.464c6.333 0 11.465-5.132 11.465-11.464C22.964 5.17 17.832.039 11.5.039V.038Zm5.257 16.535a.714.714 0 0 1-.983.237c-2.692-1.644-6.08-2.016-10.071-1.105a.715.715 0 0 1-.318-1.393c4.367-.998 8.113-.569 11.135 1.278a.715.715 0 0 1 .237.983Zm1.403-3.122a.894.894 0 0 1-1.229.295c-3.082-1.894-7.78-2.443-11.424-1.337a.895.895 0 0 1-1.116-.595.895.895 0 0 1 .596-1.115c4.164-1.263 9.34-.651 12.879 1.524.42.258.553.809.294 1.228Zm.12-3.25C14.587 8.005 8.49 7.803 4.963 8.874a1.072 1.072 0 1 1-.623-2.052c4.05-1.23 10.782-.992 15.036 1.533a1.071 1.071 0 1 1-1.094 1.845Z" fill="#fff"/></g><defs><clipPath id="clip0_32_2767"><path fill="#fff" d="M0 0h23v23H0z"/></clipPath></defs></svg>