<svg width="22" height="22" fill="none" xmlns="http://www.w3.org/2000/svg"><g clip-path="url('#clip0_32_3002')"><path d="M11 .036C4.943.036.033 4.946.033 11.002c0 6.057 4.91 10.966 10.967 10.966s10.966-4.909 10.966-10.966c0-6.056-4.91-10.965-10.967-10.965Zm5.029 15.817a.683.683 0 0 1-.94.226c-2.575-1.572-5.817-1.929-9.634-1.057a.684.684 0 0 1-.304-1.333c4.177-.954 7.76-.543 10.651 1.223a.684.684 0 0 1 .227.94Zm1.342-2.987a.855.855 0 0 1-1.176.283c-2.948-1.813-7.441-2.337-10.928-1.28A.856.856 0 0 1 4.2 11.3a.856.856 0 0 1 .57-1.066c3.983-1.209 8.934-.623 12.32 1.457a.855.855 0 0 1 .28 1.175Zm.115-3.109c-3.534-2.1-9.366-2.292-12.74-1.268a1.026 1.026 0 1 1-.596-1.963c3.874-1.176 10.314-.949 14.383 1.467a1.025 1.025 0 1 1-1.046 1.764Z" fill="#fff"/></g><defs><clipPath id="clip0_32_3002"><path fill="#fff" d="M0 0h22v22H0z"/></clipPath></defs></svg>