<svg width="16" height="16" fill="none" xmlns="http://www.w3.org/2000/svg"><path d="M15.163 7.909c0-.226-.054-.437-.144-.629-.6-1.935-3.409-1.794-7.404-1.888-.668-.016-.286-.805-.052-2.536C7.716 1.729 6.99 0 5.77 0c-2.013 0-.076 1.588-1.856 5.513-.95 2.098-3.076.923-3.076 3.03v4.796c0 .82.08 1.609 1.234 1.738 1.118.126.867.923 2.48.923h8.073c.823 0 1.492-.67 1.492-1.492 0-.34-.12-.651-.313-.903.457-.255.77-.738.77-1.297 0-.34-.12-.65-.312-.901.458-.255.772-.738.772-1.298 0-.407-.164-.776-.43-1.046.339-.273.56-.686.56-1.155Z" fill="#FFDB5E"/><path d="M9.822 9.4h3.85c.524 0 1.015-.28 1.283-.73a.392.392 0 0 0-.674-.4.71.71 0 0 1-.61.347H9.73a.709.709 0 0 1 0-1.417h2.634a.392.392 0 0 0 0-.783H9.729c-.822 0-1.491.67-1.491 1.492 0 .458.213.864.54 1.138-.276.27-.447.646-.447 1.062 0 .46.214.867.542 1.14a1.485 1.485 0 0 0 .187 2.273 1.48 1.48 0 0 0-.38.986c0 .823.668 1.492 1.49 1.492h2.454c.524 0 1.015-.28 1.283-.73a.392.392 0 0 0-.673-.4.714.714 0 0 1-.61.347H10.17a.709.709 0 0 1 0-1.417h2.912c.523 0 1.015-.28 1.282-.73a.391.391 0 1 0-.673-.4.703.703 0 0 1-.61.347h-3.16a.71.71 0 0 1 0-1.417h3.62c.524 0 1.016-.28 1.283-.73a.392.392 0 0 0-.673-.4.704.704 0 0 1-.61.347H9.822a.709.709 0 0 1 0-1.417Z" fill="#EE9547"/></svg>