<svg width="20" height="20" fill="none" xmlns="http://www.w3.org/2000/svg"><g clip-path="url('#clip0_32_4632')" fill="#C1C1CD"><path d="M9.256 12.04a.834.834 0 1 0 1.49-.746L6.164 2.128a.833.833 0 0 0-1.49 0L.089 11.294a.833.833 0 1 0 1.491.745l1.436-2.872h4.803l1.437 2.872ZM3.849 7.5l1.568-3.137L6.986 7.5H3.849Z"/><path d="M19.756 9.41a.833.833 0 0 0-1.179 0l-7.744 7.744-3.577-3.577a.834.834 0 1 0-1.179 1.178l4.167 4.167a.833.833 0 0 0 1.178 0l8.334-8.333a.833.833 0 0 0 0-1.179Z"/></g><defs><clipPath id="clip0_32_4632"><path fill="#fff" d="M0 0h20v20H0z"/></clipPath></defs></svg>