<svg width="56" height="34" fill="none" xmlns="http://www.w3.org/2000/svg"><g clip-path="url('#clip0_12_3185')" fill-rule="evenodd" clip-rule="evenodd"><path d="M20.22 30.322h14.988V3.63H20.22v26.692Z" fill="#FF5F00"/><path d="M21.171 16.976c0-5.416 2.559-10.239 6.543-13.347A17.152 17.152 0 0 0 17.128 0C7.668 0 0 7.6 0 16.976 0 26.35 7.668 33.95 17.128 33.95c3.996 0 7.672-1.356 10.586-3.63-3.984-3.108-6.543-7.93-6.543-13.346Z" fill="#EB001B"/><path d="M54.893 27.494v-.658h-.174l-.2.453-.2-.453h-.173v.659h.122v-.498l.188.43h.127l.187-.43v.497h.123Zm-1.1 0v-.546h.223v-.111h-.567v.111h.223v.546h.121Zm1.634-10.519c0 9.376-7.668 16.976-17.127 16.976a17.15 17.15 0 0 1-10.586-3.63c3.984-3.108 6.542-7.93 6.542-13.346 0-5.414-2.558-10.237-6.542-13.346A17.15 17.15 0 0 1 38.3 0C47.759 0 55.427 7.6 55.427 16.976Z" fill="#F79E1B"/></g><defs><clipPath id="clip0_12_3185"><path fill="#fff" d="M0 0h56v34H0z"/></clipPath></defs></svg>