<svg width="40" height="40" fill="none" xmlns="http://www.w3.org/2000/svg"><rect width="40" height="40" rx="12" fill="#ACDCF5"/><g clip-path="url('#clip0_32_3260')"><path d="m22.708 23.472 5.367-5.238c-1.115-4.436-5.543-7.11-9.89-5.972a8.134 8.134 0 0 0-4.768 3.473c.083-.002 9.29 7.737 9.29 7.737Z" fill="#0364B8"/><path d="M16.914 16.721v.001a6.37 6.37 0 0 0-3.414-.989l-.083.002c-3.588.046-6.46 3.051-6.416 6.713a6.724 6.724 0 0 0 1.167 3.71l8.04-1.027 6.164-5.073-5.458-3.337Z" fill="#0078D4"/><path d="M28.075 18.234a5.171 5.171 0 0 0-2.45.427l-3.253 1.397 3.586 4.52 6.41 1.59c1.383-2.62.422-5.89-2.146-7.301a5.2 5.2 0 0 0-2.148-.633Z" fill="#1490DF"/><path d="M8.168 26.158A6.454 6.454 0 0 0 13.5 29h14.218c1.942 0 3.728-1.087 4.65-2.832l-9.996-6.11-14.204 6.1Z" fill="#28A8EA"/></g><defs><clipPath id="clip0_32_3260"><path fill="#fff" transform="translate(7 12)" d="M0 0h26v17H0z"/></clipPath></defs></svg>