<svg width="95" height="95" fill="none" xmlns="http://www.w3.org/2000/svg"><rect width="95" height="95" rx="28.606" fill="#ACDCF5"/><g clip-path="url('#clip0_42_2122')"><path d="M54.185 57 67 44.216C64.338 33.39 53.766 26.863 43.387 29.64c-4.674 1.25-8.734 4.273-11.387 8.478C32.198 38.112 54.185 57 54.185 57Z" fill="#0364B8"/><path d="M40.863 40.37v.002A15.377 15.377 0 0 0 32.644 38c-.067 0-.133.004-.2.005-8.636.109-15.55 7.316-15.443 16.097A16.084 16.084 0 0 0 19.811 63l19.352-2.465L54 48.371 40.863 40.37Z" fill="#0078D4"/><path d="M67.413 44.032a11.998 11.998 0 0 0-5.763 1.022v-.001L54 48.393l8.434 10.805L77.512 63c3.254-6.266.994-14.08-5.046-17.456a12.09 12.09 0 0 0-5.052-1.511Z" fill="#1490DF"/><path d="M20 63.008c2.91 4.383 7.684 6.995 12.78 6.992h34.077c4.655.001 8.935-2.675 11.143-6.968L54.044 48 20 63.008Z" fill="#28A8EA"/></g><defs><clipPath id="clip0_42_2122"><path fill="#fff" transform="translate(17 29)" d="M0 0h62v41H0z"/></clipPath></defs></svg>